<svg width="166" height="119" viewBox="0 0 166 119" fill="none" xmlns="http://www.w3.org/2000/svg">
<path d="M110.179 88.3281H122.601V99.4844H110.179V88.3281Z" fill="#4D5D7A"/>
<path d="M56.3515 99.4844V88.3281H68.7733V99.4844" fill="#4D5D7A"/>
<path d="M118.46 73.4531L126.742 77.1719V84.6094C126.742 88.7167 123.034 92.0469 118.46 92.0469H60.4921C55.9188 92.0469 52.2109 88.7167 52.2109 84.6094V77.1719L60.4921 73.4531H118.46Z" fill="#F2C94C"/>
<path d="M56.3515 75.3125L68.7733 79.0312V84.6094H52.2109V77.1719" fill="#F9D18B"/>
<path d="M122.601 75.3125L110.179 79.0312V84.6094H126.742V77.1719" fill="#F9D18B"/>
<path d="M118.46 73.4531L110.399 58.9705C108.995 56.451 106.128 54.8594 102.991 54.8594H75.9613C72.8248 54.8594 69.9575 56.451 68.5538 58.9705L60.4921 73.4531" fill="#C7E2FC"/>
<path d="M72.9139 69.7344C86.0624 69.7344 97.1488 63.4571 100.697 54.8594H75.9614C72.8249 54.8594 69.9575 56.451 68.5539 58.9705L63.2353 68.5221C66.2662 69.2937 69.5145 69.7344 72.9139 69.7344Z" fill="#EBF7FE"/>
<path d="M126.742 77.1719H130.882V69.7344H122.601L118.46 73.4531" fill="#8892A0"/>
<g filter="url(#filter0_d)">
<mask id="path-9-inside-1" fill="white">
<path d="M52.2108 77.1719H48.0703V69.7344H56.3514L60.492 73.4531"/>
</mask>
<path d="M52.2108 77.1719H48.0703V69.7344H56.3514L60.492 73.4531" fill="#8892A0"/>
<path d="M48.0703 77.1719H46.0703V79.1719H48.0703V77.1719ZM48.0703 69.7344V67.7344H46.0703V69.7344H48.0703ZM56.3514 69.7344L57.6878 68.2464L57.1177 67.7344H56.3514V69.7344ZM52.2108 75.1719H48.0703V79.1719H52.2108V75.1719ZM50.0703 77.1719V69.7344H46.0703V77.1719H50.0703ZM48.0703 71.7344H56.3514V67.7344H48.0703V71.7344ZM55.015 71.2224L59.1556 74.9411L61.8284 71.9651L57.6878 68.2464L55.015 71.2224Z" fill="black" mask="url(#path-9-inside-1)"/>
</g>
<path d="M118.46 93.9062H60.4921C54.7843 93.9062 50.1406 89.7357 50.1406 84.6094V77.1719C50.1406 76.4672 50.5837 75.8238 51.2855 75.5077L59.5667 71.789C59.8524 71.6607 60.1712 71.5938 60.4921 71.5938H118.46C118.781 71.5938 119.1 71.6607 119.386 71.789L127.667 75.5077C128.369 75.8238 128.812 76.4672 128.812 77.1719V84.6094C128.812 89.7357 124.168 93.9062 118.46 93.9062ZM54.2812 78.321V84.6094C54.2812 87.6848 57.0678 90.1875 60.4921 90.1875H118.46C121.885 90.1875 124.671 87.6848 124.671 84.6094V78.321L117.972 75.3125H60.9807L54.2812 78.321Z" fill="black"/>
<path d="M68.7733 101.344H56.3515C55.2067 101.344 54.2812 100.513 54.2812 99.4844V90.1875H58.4218V97.625H66.703V92.0469H70.8436V99.4844C70.8436 100.513 69.9182 101.344 68.7733 101.344Z" fill="black"/>
<path d="M122.601 101.344H110.179C109.034 101.344 108.109 100.513 108.109 99.4844V92.0469H112.25V97.625H120.531V90.1875H124.671V99.4844C124.671 100.513 123.746 101.344 122.601 101.344Z" fill="black"/>
<path d="M68.7733 86.4687H52.2109V82.75H66.703V80.3718L55.6973 77.077L57.0078 73.5517L69.4296 77.2704C70.2743 77.5214 70.8436 78.2298 70.8436 79.0312V84.6094C70.8436 85.6376 69.9182 86.4687 68.7733 86.4687Z" fill="black"/>
<path d="M126.742 86.4688H110.179C109.034 86.4688 108.109 85.6376 108.109 84.6094V79.0312C108.109 78.2299 108.678 77.5214 109.525 77.2686L121.947 73.5498L123.257 77.0752L112.25 80.3719V82.75H126.742V86.4688Z" fill="black"/>
<path d="M74.9841 82.75H103.968V86.4688H74.9841V82.75Z" fill="black"/>
<path d="M116.608 74.2843L108.544 59.8016C107.486 57.9013 105.358 56.7188 102.991 56.7188H75.9614C73.595 56.7188 71.4668 57.9013 70.4068 59.8016L62.343 74.2843L58.6392 72.6201L66.703 58.1393C68.4711 54.9691 72.0154 53 75.9614 53H102.993C106.937 53 110.484 54.9691 112.252 58.1393L120.315 72.622L116.608 74.2843Z" fill="black"/>
<path d="M130.882 79.0312H126.742V75.3125H128.812V71.5938H123.458L119.924 74.7677L116.997 72.1385L121.137 68.4198C121.524 68.0702 122.05 67.875 122.601 67.875H130.882C132.027 67.875 132.952 68.7061 132.952 69.7344V77.1719C132.952 78.2001 132.027 79.0312 130.882 79.0312Z" fill="black"/>
<path d="M47.9463 79.1562H51.8388V75.4375H49.8926V71.7188H54.9256L58.248 74.8927L61 72.2635L57.1074 68.5448C56.7435 68.1952 56.2491 68 55.7314 68H47.9463C46.87 68 46 68.8311 46 69.8594V77.2969C46 78.3251 46.87 79.1562 47.9463 79.1562Z" fill="black"/>
<path d="M42.2473 53.8429C58.0666 53.8429 70.8907 44.6692 70.8907 33.3528C70.8907 22.0365 58.0666 12.8628 42.2473 12.8628C26.428 12.8628 13.6039 22.0365 13.6039 33.3528C13.6039 44.6692 26.428 53.8429 42.2473 53.8429Z" fill="#4D5D7A"/>
<path d="M13.6039 33.3528C13.6039 37.6855 15.497 41.6997 18.7051 45.0098C21.9991 45.889 25.53 46.392 29.2276 46.392C46.4839 46.392 60.4749 35.9681 60.4749 23.1078C60.4749 20.9657 60.0557 18.9017 59.3292 16.9328C54.5562 14.3883 48.6582 12.8628 42.2473 12.8628C26.4284 12.8628 13.6039 22.0367 13.6039 33.3528Z" fill="#8892A0"/>
<path d="M50.0592 33.3528H34.4356C28.6834 33.3528 24.0198 36.689 24.0198 40.8037V49.1581C28.9725 52.0845 35.3235 53.8429 42.2474 53.8429C49.1713 53.8429 55.5223 52.0845 60.475 49.1581V40.8037C60.475 36.689 55.8113 33.3528 50.0592 33.3528Z" fill="#4472B2"/>
<path d="M42.2474 33.3528C37.9326 33.3528 34.4355 30.8512 34.4355 27.7646V24.0392C34.4355 20.9526 37.9326 18.451 42.2474 18.451C46.5621 18.451 50.0592 20.9526 50.0592 24.0392V27.7646C50.0592 30.8512 46.5621 33.3528 42.2474 33.3528Z" fill="#EFBE9A"/>
<path d="M42.2473 55.7056C25.017 55.7056 11 45.6785 11 33.3528C11 21.0271 25.017 11 42.2473 11C59.4776 11 73.4947 21.0271 73.4947 33.3528C73.4947 45.6785 59.4776 55.7056 42.2473 55.7056ZM42.2473 14.7255C27.8892 14.7255 16.2079 23.0817 16.2079 33.3528C16.2079 43.6239 27.8892 51.9801 42.2473 51.9801C56.6055 51.9801 68.2868 43.6239 68.2868 33.3528C68.2868 23.0817 56.6055 14.7255 42.2473 14.7255Z" fill="black"/>
<path d="M42.2473 35.2155C36.503 35.2155 31.8315 31.8738 31.8315 27.7646V24.0391C31.8315 19.9299 36.503 16.5882 42.2473 16.5882C47.9916 16.5882 52.6631 19.9299 52.6631 24.0391V27.7646C52.6631 31.8738 47.9916 35.2155 42.2473 35.2155ZM42.2473 20.3137C39.3752 20.3137 37.0394 21.9845 37.0394 24.0391V27.7646C37.0394 29.8192 39.3752 31.4901 42.2473 31.4901C45.1195 31.4901 47.4552 29.8192 47.4552 27.7646V24.0391C47.4552 21.9845 45.1195 20.3137 42.2473 20.3137Z" fill="black"/>
<path d="M63.0789 48.2547H57.871V40.8037C57.871 37.7228 54.3661 35.2155 50.0592 35.2155H34.4355C30.1286 35.2155 26.6237 37.7228 26.6237 40.8037V48.2547H21.4158V40.8037C21.4158 35.6682 27.2564 31.4901 34.4355 31.4901H50.0592C57.2382 31.4901 63.0789 35.6682 63.0789 40.8037V48.2547Z" fill="black"/>
<path d="M31.2628 43.168H36.7504V52.6339H31.2628V43.168Z" fill="black"/>
<path d="M47.4552 42.6665H52.6631V51.9802H47.4552V42.6665Z" fill="black"/>
<path d="M133.163 53.8429C148.94 53.8429 161.729 44.6692 161.729 33.3528C161.729 22.0364 148.94 12.8627 133.163 12.8627C117.386 12.8627 104.597 22.0364 104.597 33.3528C104.597 44.6692 117.386 53.8429 133.163 53.8429Z" fill="#4D5D7A"/>
<path d="M104.597 33.3528C104.597 37.6855 106.485 41.6997 109.684 45.0098C112.969 45.889 116.491 46.3919 120.178 46.3919C137.388 46.3919 151.342 35.9681 151.342 23.1078C151.342 20.9656 150.924 18.9017 150.199 16.9328C145.439 14.3883 139.557 12.8627 133.163 12.8627C117.387 12.8627 104.597 22.0367 104.597 33.3528Z" fill="#8892A0"/>
<path d="M140.954 33.3528H125.372C119.636 33.3528 114.985 36.689 114.985 40.8037V49.1581C119.924 52.0845 126.258 53.8429 133.163 53.8429C140.068 53.8429 146.402 52.0845 151.342 49.1581V40.8037C151.342 36.689 146.691 33.3528 140.954 33.3528Z" fill="#4472B2"/>
<path d="M133.163 33.3528C128.86 33.3528 125.372 30.8511 125.372 27.7646V24.0391C125.372 20.9526 128.86 18.4509 133.163 18.4509C137.466 18.4509 140.954 20.9526 140.954 24.0391V27.7646C140.954 30.8511 137.466 33.3528 133.163 33.3528Z" fill="#EFBE9A"/>
<path d="M133.163 55.7056C115.979 55.7056 102 45.6785 102 33.3528C102 21.0271 115.979 11 133.163 11C150.347 11 164.326 21.0271 164.326 33.3528C164.326 45.6785 150.347 55.7056 133.163 55.7056ZM133.163 14.7255C118.844 14.7255 107.194 23.0817 107.194 33.3528C107.194 43.6239 118.844 51.9801 133.163 51.9801C147.483 51.9801 159.132 43.6239 159.132 33.3528C159.132 23.0817 147.483 14.7255 133.163 14.7255Z" fill="black"/>
<path d="M133.163 35.2155C127.434 35.2155 122.775 31.8738 122.775 27.7646V24.0391C122.775 19.9299 127.434 16.5882 133.163 16.5882C138.892 16.5882 143.551 19.9299 143.551 24.0391V27.7646C143.551 31.8738 138.892 35.2155 133.163 35.2155ZM133.163 20.3136C130.299 20.3136 127.969 21.9845 127.969 24.0391V27.7646C127.969 29.8192 130.299 31.49 133.163 31.49C136.028 31.49 138.357 29.8192 138.357 27.7646V24.0391C138.357 21.9845 136.028 20.3136 133.163 20.3136Z" fill="black"/>
<path d="M153.939 48.2547H148.745V40.8037C148.745 37.7228 145.249 35.2155 140.954 35.2155H125.372C121.077 35.2155 117.582 37.7228 117.582 40.8037V48.2547H112.388V40.8037C112.388 35.6682 118.213 31.4901 125.372 31.4901H140.954C148.114 31.4901 153.939 35.6682 153.939 40.8037V48.2547Z" fill="black"/>
<path d="M122.258 43.6704H127.943V53.6704H122.258V43.6704Z" fill="black"/>
<path d="M138.357 43.6665H143.551V52.9801H138.357V43.6665Z" fill="black"/>
<defs>
<filter id="filter0_d" x="44.0703" y="69.7344" width="20.4218" height="15.4375" filterUnits="userSpaceOnUse" color-interpolation-filters="sRGB">
<feFlood flood-opacity="0" result="BackgroundImageFix"/>
<feColorMatrix in="SourceAlpha" type="matrix" values="0 0 0 0 0 0 0 0 0 0 0 0 0 0 0 0 0 0 127 0"/>
<feOffset dy="4"/>
<feGaussianBlur stdDeviation="2"/>
<feColorMatrix type="matrix" values="0 0 0 0 0 0 0 0 0 0 0 0 0 0 0 0 0 0 0.25 0"/>
<feBlend mode="normal" in2="BackgroundImageFix" result="effect1_dropShadow"/>
<feBlend mode="normal" in="SourceGraphic" in2="effect1_dropShadow" result="shape"/>
</filter>
</defs>
</svg>
